<?xml version="1.0" encoding="UTF-8" ?>
<!DOCTYPE svg PUBLIC "-//W3C//DTD SVG 1.1//EN" "http://www.w3.org/Graphics/SVG/1.1/DTD/svg11.dtd">
<svg width="341pt" height="164pt" viewBox="0 0 440 212" version="1.1" xmlns="http://www.w3.org/2000/svg">
<g id="#ffffffff">
</g>
<g id="#ccccccff">
<path fill="#cccccc" opacity="1.00" d=" M 434.50 3.29 C 435.90 3.27 437.31 3.25 438.72 3.23 C 438.74 71.67 438.80 140.11 438.69 208.54 C 437.29 208.52 435.90 208.50 434.51 208.49 C 434.46 140.09 434.49 71.69 434.50 3.29 Z" />
</g>
<g id="#185f7dff">
<path fill="#185f7d" opacity="1.00" d=" M 84.75 46.51 C 87.49 46.50 90.24 46.50 92.99 46.49 C 92.96 56.33 93.09 66.17 92.93 76.01 C 92.86 82.36 90.18 89.13 84.36 92.28 C 77.78 95.63 69.44 95.61 62.99 91.97 C 57.50 88.76 54.84 82.15 54.98 75.99 C 55.01 66.16 54.99 56.33 55.00 46.50 C 57.67 46.50 60.33 46.50 63.00 46.50 C 63.02 55.01 62.98 63.51 63.01 72.02 C 63.15 75.93 63.16 80.18 65.51 83.52 C 68.67 87.87 75.30 88.28 79.76 85.83 C 83.79 83.40 84.65 78.33 84.73 74.00 C 84.79 64.84 84.73 55.67 84.75 46.51 Z" />
<path fill="#185f7d" opacity="1.00" d=" M 120.45 46.69 C 127.38 44.63 135.11 45.88 141.28 49.57 C 141.25 52.45 141.25 55.32 141.24 58.19 C 136.06 54.33 129.17 51.49 122.74 53.74 C 119.96 54.57 118.14 57.91 119.48 60.61 C 120.58 63.19 123.57 63.94 125.94 64.90 C 131.04 66.93 136.92 68.02 140.70 72.33 C 145.56 78.20 144.33 88.65 137.21 92.22 C 129.20 96.37 119.19 95.05 111.51 90.73 C 111.50 87.77 111.50 84.82 111.47 81.86 C 117.25 86.31 125.27 88.95 132.35 86.24 C 136.21 84.84 136.70 78.84 133.20 76.76 C 127.77 73.47 121.10 72.80 115.89 69.07 C 111.31 65.78 109.96 59.25 111.86 54.11 C 113.28 50.38 116.71 47.79 120.45 46.69 Z" />
<path fill="#185f7d" opacity="1.00" d=" M 194.80 45.79 C 205.70 55.79 216.30 66.13 227.00 76.35 C 227.00 66.40 227.00 56.45 227.00 46.50 C 229.67 46.50 232.33 46.50 235.00 46.50 C 235.00 62.59 235.02 78.69 234.99 94.78 C 224.08 84.42 213.47 73.75 202.50 63.45 C 202.51 73.55 202.49 83.64 202.51 93.73 C 199.92 93.75 197.34 93.75 194.76 93.76 C 194.77 77.77 194.69 61.78 194.80 45.79 Z" />
<path fill="#185f7d" opacity="1.00" d=" M 256.01 46.49 C 265.66 46.49 275.30 46.54 284.94 46.46 C 285.00 48.89 285.00 51.32 285.00 53.75 C 278.08 53.75 271.17 53.74 264.25 53.76 C 264.25 57.50 264.25 61.25 264.25 64.99 C 270.42 65.01 276.58 64.99 282.75 65.01 C 282.75 67.42 282.75 69.83 282.75 72.25 C 276.58 72.26 270.42 72.25 264.25 72.25 C 264.25 77.00 264.24 81.76 264.27 86.51 C 271.17 86.48 278.08 86.51 284.98 86.49 C 284.99 88.99 285.00 91.50 285.00 94.00 C 275.33 94.00 265.67 94.00 256.00 94.00 C 256.01 78.16 255.98 62.33 256.01 46.49 Z" />
<path fill="#185f7d" opacity="1.00" d=" M 308.44 48.35 C 315.94 44.01 325.52 45.34 332.88 49.34 C 333.02 52.28 333.02 55.23 333.01 58.17 C 327.67 54.17 320.48 51.31 313.92 53.93 C 310.20 55.25 309.77 60.87 313.15 62.81 C 318.66 65.97 325.39 66.61 330.54 70.49 C 337.46 75.65 336.95 88.14 329.04 92.13 C 321.03 96.33 310.92 95.09 303.26 90.65 C 303.25 87.73 303.25 84.81 303.21 81.89 C 308.79 85.88 315.89 88.59 322.77 86.73 C 325.31 86.09 327.64 83.81 327.28 81.01 C 327.33 78.87 325.83 76.99 323.95 76.11 C 318.55 73.31 312.18 72.52 307.28 68.73 C 300.89 63.79 301.31 52.44 308.44 48.35 Z" />
<path fill="#185f7d" opacity="1.00" d=" M 356.44 48.51 C 363.88 44.01 373.62 45.22 380.97 49.33 C 381.00 52.24 381.00 55.14 381.02 58.05 C 375.73 54.05 368.51 51.34 362.04 53.98 C 358.44 55.38 358.02 60.83 361.32 62.81 C 366.96 66.09 373.98 66.61 379.14 70.80 C 383.58 74.30 384.47 80.79 382.75 85.91 C 381.14 90.47 376.55 93.12 372.04 94.10 C 365.12 95.53 357.73 94.25 351.58 90.79 C 351.48 87.82 351.48 84.85 351.47 81.88 C 357.29 86.20 365.22 88.97 372.29 86.24 C 376.14 84.84 376.73 78.94 373.26 76.80 C 367.68 73.31 360.64 72.81 355.40 68.67 C 349.24 63.73 349.53 52.68 356.44 48.51 Z" />
<path fill="#185f7d" opacity="1.00" d=" M 3.75 46.50 C 12.13 46.99 20.84 45.26 28.95 47.91 C 37.96 50.80 39.24 64.89 31.02 69.47 C 38.51 72.57 40.23 83.19 35.09 89.07 C 31.93 92.83 26.77 93.83 22.10 93.97 C 15.98 94.07 9.87 93.97 3.75 94.00 C 3.75 78.17 3.74 62.33 3.75 46.50 M 11.76 53.76 C 11.75 57.92 11.75 62.08 11.76 66.24 C 16.06 66.03 20.52 66.84 24.72 65.63 C 29.79 64.16 29.83 55.81 24.79 54.29 C 20.54 53.21 16.09 53.95 11.76 53.76 M 11.76 73.25 C 11.74 77.75 11.75 82.25 11.76 86.74 C 16.69 86.39 22.00 87.71 26.67 85.64 C 31.30 83.38 30.88 75.68 26.03 73.95 C 21.43 72.51 16.50 73.56 11.76 73.25 Z" />
<path fill="#185f7d" opacity="1.00" d=" M 164.00 46.50 C 166.67 46.50 169.33 46.50 172.00 46.50 C 172.00 62.33 172.00 78.17 172.00 94.00 C 169.33 94.00 166.67 94.00 164.00 94.00 C 164.00 78.17 164.00 62.33 164.00 46.50 Z" />
<path fill="#185f7d" opacity="1.00" d=" M 131.22 120.25 C 138.69 115.52 148.65 116.84 156.03 121.10 C 155.99 123.96 155.99 126.82 156.00 129.68 C 150.60 125.73 143.18 122.68 136.68 125.71 C 133.47 127.24 133.05 132.01 135.94 134.08 C 141.86 137.84 149.73 138.02 154.84 143.16 C 158.26 146.39 158.83 151.54 157.95 155.94 C 156.93 160.34 153.09 163.62 148.86 164.87 C 141.46 167.15 133.14 165.92 126.48 162.05 C 126.50 159.12 126.51 156.19 126.48 153.26 C 132.11 157.49 139.76 160.27 146.68 157.79 C 150.86 156.67 151.69 150.25 147.91 148.15 C 142.32 144.66 135.21 144.22 130.07 139.90 C 124.24 134.97 124.62 124.37 131.22 120.25 Z" />
<path fill="#185f7d" opacity="1.00" d=" M 35.50 118.25 C 38.17 118.25 40.83 118.25 43.49 118.25 C 43.51 133.91 43.50 149.58 43.50 165.25 C 40.83 165.25 38.17 165.25 35.50 165.25 C 35.50 149.58 35.49 133.91 35.50 118.25 Z" />
<path fill="#185f7d" opacity="1.00" d=" M 66.24 117.15 C 76.88 127.31 87.49 137.51 98.23 147.57 C 98.27 137.71 98.24 127.86 98.25 118.01 C 100.91 118.00 103.58 118.00 106.25 118.00 C 106.27 134.03 106.23 150.05 106.27 166.08 C 95.42 155.79 84.78 145.28 74.02 134.90 C 73.97 145.01 74.02 155.13 74.00 165.25 C 71.41 165.25 68.83 165.25 66.25 165.24 C 66.24 149.21 66.26 133.18 66.24 117.15 Z" />
<path fill="#185f7d" opacity="1.00" d=" M 178.75 118.25 C 181.42 118.25 184.08 118.25 186.75 118.25 C 186.75 133.92 186.75 149.58 186.75 165.25 C 184.08 165.25 181.42 165.25 178.75 165.25 C 178.75 149.58 178.74 133.92 178.75 118.25 Z" />
<path fill="#185f7d" opacity="1.00" d=" M 209.76 118.25 C 216.20 118.25 222.65 118.25 229.10 118.23 C 236.43 118.14 244.00 121.89 247.58 128.44 C 251.43 135.32 251.68 143.87 249.28 151.28 C 246.72 159.07 239.10 164.58 230.98 165.10 C 223.91 165.46 216.83 165.15 209.75 165.25 C 209.75 149.58 209.74 133.91 209.76 118.25 M 218.00 125.50 C 218.00 136.33 218.00 147.16 218.00 157.99 C 223.73 157.78 229.90 158.87 235.23 156.19 C 240.35 153.55 242.70 147.55 242.55 142.03 C 242.76 136.45 240.79 130.19 235.65 127.33 C 230.26 124.32 223.87 125.88 218.00 125.50 Z" />
<path fill="#185f7d" opacity="1.00" d=" M 267.25 118.25 C 276.83 118.24 286.41 118.25 296.00 118.25 C 296.00 120.67 295.99 123.09 295.99 125.51 C 289.07 125.49 282.16 125.50 275.25 125.51 C 275.25 129.17 275.25 132.83 275.25 136.49 C 281.41 136.50 287.58 136.50 293.75 136.50 C 293.75 138.83 293.75 141.17 293.75 143.50 C 287.58 143.50 281.41 143.49 275.25 143.51 C 275.25 148.34 275.25 153.16 275.25 157.99 C 282.16 158.01 289.08 157.99 296.00 158.00 C 296.00 160.42 296.00 162.83 296.00 165.25 C 286.41 165.25 276.83 165.26 267.25 165.25 C 267.25 149.58 267.25 133.92 267.25 118.25 Z" />
<path fill="#185f7d" opacity="1.00" d=" M 319.51 118.24 C 326.00 118.30 332.49 118.18 338.97 118.28 C 344.47 118.42 350.30 121.59 351.89 127.15 C 353.31 131.98 352.97 137.71 349.87 141.84 C 347.96 144.30 344.89 145.24 342.01 146.03 C 347.63 152.38 353.21 158.77 358.74 165.21 C 355.58 165.27 352.43 165.27 349.28 165.22 C 343.92 158.85 338.46 152.57 333.07 146.24 C 331.29 146.25 329.52 146.25 327.76 146.25 C 327.74 152.58 327.75 158.91 327.75 165.24 C 325.00 165.25 322.25 165.25 319.50 165.25 C 319.50 149.58 319.48 133.91 319.51 118.24 M 327.76 125.26 C 327.74 129.92 327.75 134.58 327.76 139.24 C 332.03 139.00 336.49 139.91 340.63 138.58 C 345.74 136.53 345.85 128.33 340.82 126.14 C 336.66 124.55 332.09 125.48 327.76 125.26 Z" />
</g>
</svg>
