<svg id="Ebene_1" data-name="Ebene 1" xmlns="http://www.w3.org/2000/svg" viewBox="0 0 144.98 56.69">
    <defs>
        <style>.cls-1{fill:#fff}</style>
    </defs>
    <path class="cls-1" d="M121.18 55.2a9 9 0 119-9 9 9 0 01-9 9m14.1-4.85h-4.49a10.25 10.25 0 00.57-1.74H137l1.49-1.49h-6.89v-.87-.87h8.66l1.49-1.49h-10.39a10.33 10.33 0 00-.57-1.74h12.7l1.51-1.51h-15a10.44 10.44 0 00-17.64 0h-15l1.49 1.49h12.7a10.42 10.42 0 00-.57 1.74h-10.36l1.49 1.49h8.66v1.74h-6.92l1.49 1.49H111a10.34 10.34 0 00.57 1.74h-4.49l1.49 1.49h3.78a10.44 10.44 0 0017.64 0h3.78zm-6.95-1.74h-1v-4.73h1zm-5.09 0h-.94v-4.73h1.15l1.89 3.43v-3.43h.94v4.72h-1.15l-1.88-3.41zm-2 0h-1v-4.73h1zm-6.28 0H114v-4.73h1.37l1.21 3.77 1.2-3.77h1.37v4.72h-1v-3.5l-1.11 3.5h-1L115 45.08zM116.34 6.94h7.77v2.85h-7.77zM12.93 0h-3.5v10.15c0 2.71-1.07 3.75-3 3.75s-2.9-1-2.9-3.75V0H0v10.33C0 15.24 2.78 17 6.4 17s6.53-1.79 6.53-6.7zm10.94 0v16.73h3.5v-6.06h3.2L34 16.73h4l-3.8-6.63a5.22 5.22 0 002.9-4.69A5.29 5.29 0 0031.52 0zm7.62 3.2a2.11 2.11 0 012.09 2.18 2.07 2.07 0 01-2.09 2.12h-4.12V3.2zM48.61 0v16.73h7.67a5 5 0 005.41-5.14 4.66 4.66 0 00-2-3.52 4.6 4.6 0 001.61-3.38C61.32 2.36 59.88 0 55.91 0zm7.12 3c1.47 0 2.11.74 2.11 1.79A1.68 1.68 0 0156 6.68h-3.9V3zm.4 6.6a1.93 1.93 0 012 2 2 2 0 01-2 2.11h-4V9.63zm26.22 7.1H86L79.62 0h-3.18l-6.37 16.73h3.65L75.05 13H81zM78 4.77l1.84 5.06h-3.67zM107.68 0h-3.5v10.25L98.07 0h-3.35v16.73h3.5V6.5l6.08 10.23h3.38zm26.24 16.73l3.55-5.81 3.6 5.81H145L139.54 8l4.94-8h-3.9l-3.13 5.11L134.33 0h-3.95l5 8-5.38 8.73zM0 27.88h144.98v1.49H0zM.1 44.34v-6.06h2.58a2 2 0 011.32.43 1.44 1.44 0 01.5 1.15 1.58 1.58 0 01-.2.8 1.2 1.2 0 01-.54.5 1.3 1.3 0 01.68.53 1.66 1.66 0 01.25.92 1.59 1.59 0 01-.53 1.25 2 2 0 01-1.41.47zm.9-3.52h1.73a.92.92 0 00.66-.22.9.9 0 000-1.25 1.07 1.07 0 00-.73-.23H1zm0 2.69h1.71a1.17 1.17 0 00.79-.25.85.85 0 00.29-.68.91.91 0 00-.3-.72 1.19 1.19 0 00-.82-.27H1zM5.26 42.73V40h.83v2.68a1.15 1.15 0 00.21.75.77.77 0 00.63.26.91.91 0 00.73-.29 1.27 1.27 0 00.25-.85V40h.83v4.35h-.8V44a1.46 1.46 0 01-1.15.46A1.42 1.42 0 015.66 44a1.8 1.8 0 01-.4-1.27zM9.71 39.31v-1h.84v1zm0 5V40h.83v4.35zM11.66 43.2v-4.92h.83v4.95a.43.43 0 00.09.32.46.46 0 00.31.08h.19v.68a1.6 1.6 0 01-.5.07 1 1 0 01-.32 0 .92.92 0 01-.29-.17.76.76 0 01-.23-.36 1.9 1.9 0 01-.08-.65zM13.38 40.74V40H14v-1.7h.83V40h.93v.75h-.93v2.4a.58.58 0 00.1.39.48.48 0 00.36.11h.35v.68a2.78 2.78 0 01-.59.07Q14 44.38 14 43.19v-2.45zM0 53.34v-6.06h.85v2.07A1.6 1.6 0 012 48.91a1.53 1.53 0 011.27.6 2.58 2.58 0 01.47 1.63 2.62 2.62 0 01-.49 1.67 1.6 1.6 0 01-1.33.62A1.35 1.35 0 01.83 53v.38zm.79-2.18a2 2 0 00.27 1.13.9.9 0 00.79.39.9.9 0 00.79-.39 2 2 0 00.27-1.14q0-1.49-1-1.49a.92.92 0 00-.8.38 1.94 1.94 0 00-.3 1.12zM3.93 49h.91l1.08 3.3L7 49h.91L6 54.22a1.12 1.12 0 01-.39.58 1.23 1.23 0 01-.72.19L4.6 55v-.74h.31a.34.34 0 00.25-.08.84.84 0 00.16-.28l.17-.47zM45.77 45.34c-1.2 0-1.87-.78-1.87-2.19v-2.9h-1.59v2.93a3.4 3.4 0 003.46 3.71 3.51 3.51 0 001.79-.47V47c0 3.22-1.68 5.14-4.5 5.14s-4.5-1.92-4.5-5.14v-6.74H37V47c0 4 2.4 6.61 6.11 6.61a5.89 5.89 0 004.4-1.77A6.87 6.87 0 0049.22 47v-6.74h-1.61v3.1c-.07 1.28-.73 1.98-1.84 1.98zM61.88 44.29l-.09-.06h.1a1.86 1.86 0 001.23-1.79c0-1.27-1-2.12-2.57-2.12h-1.93v5.78h.81v-1.58h1.09c.59 0 .84.12 1.31.83l.49.76h.93l-.66-1a3 3 0 00-.71-.82zm-1.28-.53h-1.17V41h1.18c.41 0 1.74.1 1.74 1.36s-1.35 1.4-1.74 1.4zM68.14 43.07L68 43l.1-.06a1.29 1.29 0 00.58-1.15c0-.7-.35-1.54-2-1.54h-2.14v5.85h2.38c1.73 0 2.09-.9 2.09-1.65a1.41 1.41 0 00-.87-1.38zm-2.78-2h1.42c1 0 1.16.41 1.16.85 0 .21 0 .85-1.16.85h-1.43zM67 45.34h-1.65v-1.9H67c.79 0 1.2.33 1.2 1 .04.36-.09.9-1.2.9zM72.16 40.28l-2.45 5.82h.89l.62-1.5h2.35l.62 1.49h.89l-2.45-5.82zm-.64 3.56l.86-2.06.88 2.1zM76.62 40.28h-.49v5.82h.81v-4.26l.11.14 3.13 4.12h.48v-5.82h-.81v4.25l-.05-.06-3.18-4.19zM53.26 43.55v-3.29h-.8v3.3a2.41 2.41 0 104.81 0v-3.3h-.8v3.29c0 1.15-.59 1.81-1.61 1.81s-1.6-.66-1.6-1.81zM53.26 51v-3.29h-.8V51a2.41 2.41 0 104.81 0v-3.29h-.8V51c0 1.15-.59 1.81-1.61 1.81s-1.6-.69-1.6-1.81zM61.27 50.18l-.62-.08c-1-.13-1.15-.45-1.15-.75 0-.65.76-.89 1.25-.89h.09a2.18 2.18 0 011.59.69l.05.06.54-.48-.02-.05a2.77 2.77 0 00-2.13-1h-.09a1.85 1.85 0 00-2 1.66c0 .84.61 1.33 1.86 1.48l.62.07c.85.12 1.2.39 1.2.94s-.72 1-1.39 1a1.88 1.88 0 01-1.81-1v-.1l-.55.49v.06a2.55 2.55 0 002.37 1.26c1.27 0 2.19-.74 2.19-1.73-.09-1.24-1.18-1.52-2-1.63z" />
</svg>